<?xml version="1.0" encoding="utf-8"?>
<svg width="235" height="244" viewBox="0 0 235 244" fill="none" xmlns="http://www.w3.org/2000/svg">
<path d="M138.4 187.6C129.9 187.6 121.2 185.6 112.6 183.6C104.8 181.7 96.7004 179.8 88.9004 179.6C80.5004 179.3 73.4004 180.8 66.8004 184.5L61.4004 187.7V49.0997H68.8004V175.5C75.0004 173 81.8004 172 89.4004 172.3C97.8004 172.6 106.2 174.6 114.3 176.5C122.4 178.4 130.1 180.3 137.3 180.4C145.2 180.5 151.4 178.8 157.2 174.9L161.5 180.8C154 185.9 146.3 187.6 138.4 187.6Z" fill="#EFEADF"/>
<path d="M178.201 126.7C178.201 134.2 175.301 141.3 169.801 146.6C164.401 151.9 157.101 154.8 149.501 154.8H99.1006V98.2997H102.801H146.501C152.201 98.2997 157.501 96.0997 161.701 92.0997C165.701 88.1997 168.001 82.8997 168.001 77.3997C168.001 71.7997 165.601 66.5997 161.701 62.4997C157.601 58.4997 152.301 56.2997 146.501 56.2997H102.801C99.0006 56.2997 95.7006 57.2997 93.7006 59.1997C91.9006 60.7997 90.9006 62.7997 90.9006 64.9997C90.9006 67.2997 91.9006 69.2997 93.6006 70.7997C95.8006 72.7997 99.0006 73.6997 102.901 73.6997C107.801 73.6997 129.401 73.7997 129.701 73.7997V80.9997C129.401 80.9997 107.801 80.8997 102.901 80.8997C97.2006 80.8997 92.3006 79.2997 88.8006 76.0997C85.6006 73.1997 83.6006 69.2997 83.6006 64.9997C83.6006 57.1997 90.2006 49.0997 102.901 49.0997H146.601C154.301 49.0997 161.501 52.0997 166.901 57.4997C172.301 62.7997 175.401 69.8997 175.401 77.3997C175.401 84.8997 172.301 91.9997 166.901 97.2997C165.401 98.6997 163.801 99.9997 162.001 101.2C164.801 102.5 167.401 104.4 169.801 106.5C175.201 111.9 178.201 119.1 178.201 126.7ZM170.801 126.7C170.801 121.1 168.601 115.7 164.501 111.8C160.501 107.8 155.101 105.6 149.501 105.6H146.601H106.601V147.7H149.601C155.201 147.7 160.601 145.5 164.601 141.5C168.601 137.5 170.801 132.1 170.801 126.7Z" fill="#EFEADF"/>
<path d="M27.2002 198.5L24.8002 195.4L23.0002 196L21.2002 193.7L32.0002 190.5L33.8002 192.9L27.9002 202.5L26.1002 200.2L27.2002 198.5ZM28.4002 196.7L30.4002 193.6L26.9002 194.8L28.4002 196.7Z" fill="#EFEADF"/>
<path d="M48.2998 211L45.7998 208.8L44.5998 210.1L46.8998 212.1L45.3998 213.8L43.0998 211.8L40.3998 214.9L38.2998 213.1L45.1998 205.2L49.6998 209.2L48.2998 211Z" fill="#EFEADF"/>
<path d="M62.9004 221.1L58.7004 228.1L56.4004 226.7L60.6004 219.7L58.7004 218.5L59.9004 216.5L66.1004 220.2L64.9004 222.2L62.9004 221.1Z" fill="#EFEADF"/>
<path d="M82.5006 230.1L79.5006 229L78.9006 230.6L81.8006 231.7L81.0006 233.9L78.1006 232.8L77.5006 234.5L80.5006 235.6L79.7006 237.8L74.1006 235.7L77.8006 225.8L83.4006 227.9L82.5006 230.1Z" fill="#EFEADF"/>
<path d="M103.501 243.3L100.101 242.8L98.2008 238.4L97.5008 242.4L94.8008 242L96.5008 231.6L100.701 232.3C101.301 232.4 101.801 232.6 102.201 232.8C102.601 233 102.901 233.3 103.201 233.7C103.401 234 103.601 234.4 103.701 234.8C103.801 235.2 103.801 235.6 103.701 236.1C103.601 236.9 103.301 237.5 102.801 237.9C102.301 238.3 101.701 238.6 101.001 238.6L103.501 243.3ZM98.5008 236.6L99.0008 236.7C99.5008 236.8 100.001 236.7 100.301 236.6C100.601 236.4 100.801 236.1 100.901 235.7C101.001 235.3 100.901 234.9 100.601 234.7C100.401 234.4 100.001 234.3 99.4008 234.2L98.9008 234.1L98.5008 236.6Z" fill="#EFEADF"/>
<path d="M136.001 232L139.301 238.2L140.001 231.1L142.101 230.6L145.801 236.7L146.101 229.7L148.901 229.1L148.201 240.1L145.501 240.7L142.101 235.2L141.401 241.6L138.701 242.2L133.301 232.6L136.001 232Z" fill="#EFEADF"/>
<path d="M162.3 229.5C161.9 228.8 161.8 228.1 161.7 227.4C161.7 226.7 161.7 226 162 225.3C162.2 224.6 162.6 224 163.1 223.4C163.6 222.8 164.2 222.3 165 222C165.8 221.6 166.5 221.4 167.3 221.3C168.1 221.2 168.8 221.3 169.5 221.5C170.2 221.7 170.8 222.1 171.4 222.5C172 223 172.4 223.6 172.8 224.3C173.2 225 173.3 225.7 173.4 226.4C173.4 227.1 173.4 227.8 173.1 228.5C172.9 229.2 172.5 229.8 172 230.4C171.5 231 170.9 231.5 170.1 231.8C169.3 232.2 168.6 232.4 167.8 232.5C167 232.6 166.3 232.5 165.6 232.3C164.9 232.1 164.3 231.7 163.7 231.3C163.1 230.8 162.7 230.2 162.3 229.5ZM164.9 228.2C165.1 228.6 165.3 228.9 165.6 229.1C165.9 229.3 166.2 229.5 166.6 229.6C167 229.7 167.3 229.8 167.7 229.7C168.1 229.7 168.5 229.6 168.8 229.4C169.2 229.2 169.5 229 169.7 228.7C170 228.4 170.1 228.1 170.3 227.7C170.4 227.3 170.5 227 170.5 226.6C170.5 226.2 170.4 225.8 170.2 225.5C170 225.2 169.8 224.8 169.5 224.6C169.2 224.4 168.9 224.2 168.5 224.1C168.1 224 167.8 224 167.4 224C167 224 166.6 224.1 166.3 224.3C165.9 224.5 165.6 224.7 165.4 225C165.1 225.3 165 225.6 164.8 226C164.7 226.4 164.6 226.7 164.6 227.1C164.6 227.4 164.7 227.8 164.9 228.2Z" fill="#EFEADF"/>
<path d="M194.9 214.7L192.3 216.9L187.7 215.4L190.3 218.5L188.2 220.2L181.6 212L184.9 209.3C185.4 208.9 185.8 208.7 186.3 208.5C186.8 208.3 187.2 208.3 187.6 208.4C188 208.5 188.4 208.6 188.7 208.8C189.1 209 189.4 209.3 189.7 209.6C190.2 210.2 190.5 210.8 190.5 211.5C190.5 212.1 190.3 212.7 189.8 213.4L194.9 214.7ZM186.5 214L186.9 213.7C187.3 213.4 187.6 213 187.7 212.7C187.8 212.3 187.7 212 187.4 211.7C187.1 211.4 186.8 211.2 186.5 211.2C186.2 211.2 185.7 211.4 185.3 211.7L184.9 212L186.5 214Z" fill="#EFEADF"/>
<path d="M202.3 198.1L201 192.8L203.1 190.2L204.4 196.6L211.6 196.5L209.4 199.3L203.6 199.2L207.1 202.1L205.4 204.2L197.2 197.6L198.9 195.5L202.3 198.1Z" fill="#EFEADF"/>
<path d="M32.4998 45.6L30.1998 48.1L25.3998 47.3L28.3998 50L26.5998 52L18.7998 45L21.5998 41.8C21.9998 41.4 22.3998 41 22.7998 40.8C23.1998 40.6 23.5998 40.5 23.9998 40.5C24.3998 40.5 24.7998 40.6 25.1998 40.7C25.5998 40.9 25.8998 41.1 26.2998 41.4C26.8998 41.9 27.1998 42.5 27.3998 43.1C27.4998 43.7 27.3998 44.4 26.9998 45L32.4998 45.6ZM24.0998 46.2L24.3998 45.8C24.7998 45.4 24.9998 45 24.9998 44.7C24.9998 44.3 24.8998 44 24.5998 43.7C24.2998 43.4 23.9998 43.3 23.5998 43.4C23.1998 43.5 22.8998 43.7 22.4998 44.1L22.1998 44.5L24.0998 46.2Z" fill="#EFEADF"/>
<path d="M42 26.6003L39.4 28.6003L40.5 30.0003L42.9 28.1003L44.3 29.9003L42 31.8003L43.1 33.2003L45.7 31.2003L47.1 33.0003L42.4 36.7003L36 28.4003L40.7 24.7003L42 26.6003Z" fill="#EFEADF"/>
<path d="M60.4 15.8C60 15.7 59.7 15.7 59.4 15.7C59.1 15.7 58.8 15.8 58.6 15.9C58.3 16.1 58.1 16.3 58 16.5C57.9 16.8 57.9 17 58 17.2C58.1 17.4 58.2 17.5 58.4 17.5C58.6 17.6 58.7 17.6 58.9 17.6C59.1 17.6 59.3 17.6 59.6 17.5C59.8 17.5 60.1 17.4 60.3 17.4C61.2 17.2 62 17.3 62.6 17.5C63.2 17.7 63.7 18.2 64.1 18.9C64.4 19.4 64.5 19.9 64.5 20.3C64.5 20.8 64.5 21.2 64.3 21.7C64.1 22.1 63.9 22.6 63.5 22.9C63.1 23.3 62.7 23.6 62.1 23.9C60.9 24.5 59.6 24.7 58.3 24.6V22.1C58.8 22.2 59.3 22.3 59.8 22.3C60.2 22.3 60.6 22.2 61 22C61.4 21.8 61.6 21.5 61.7 21.3C61.8 21.1 61.8 20.8 61.7 20.5C61.6 20.4 61.5 20.3 61.4 20.2C61.3 20.1 61.2 20.1 61 20C60.8 20 60.6 20 60.4 20C60.2 20 59.9 20.1 59.6 20.1C59.2 20.2 58.9 20.2 58.5 20.3C58.1 20.4 57.8 20.3 57.4 20.2C57.1 20.1 56.7 20 56.4 19.8C56.1 19.6 55.8 19.2 55.6 18.8C55.2 18.5 55 18 55 17.6C55 17.1 55 16.7 55.1 16.3C55.2 15.9 55.5 15.5 55.8 15.1C56.1 14.7 56.5 14.4 57 14.2C57.5 14 58 13.8 58.5 13.6C59.1 13.5 59.6 13.4 60.2 13.4L60.4 15.8Z" fill="#EFEADF"/>
<path d="M79.5996 7.69993L82.0996 15.4999L79.4996 16.2999L76.9996 8.59993L74.8996 9.29993L74.0996 6.99993L80.9996 4.79993L81.6996 6.99993L79.5996 7.69993Z" fill="#EFEADF"/>
<path d="M102.9 9.40002L99.0002 9.90002L98.6002 11.8L95.7002 12.2L98.3002 1.30002L101.3 0.900024L106.6 10.8L103.7 11.2L102.9 9.40002ZM101.9 7.40002L100.2 4.10002L99.4002 7.70002L101.9 7.40002Z" fill="#EFEADF"/>
<path d="M123.1 0.200024L122.7 5.90002C122.7 6.20002 122.7 6.50002 122.7 6.80002C122.7 7.10002 122.7 7.40002 122.8 7.70002C122.9 8.00002 123.1 8.20002 123.3 8.40002C123.5 8.60002 123.9 8.70002 124.3 8.70002C124.8 8.70002 125.1 8.70002 125.4 8.50002C125.7 8.40002 125.9 8.20002 126 7.90002C126.1 7.60002 126.2 7.40002 126.3 7.00002C126.3 6.70002 126.4 6.40002 126.4 6.10002L126.8 0.400024L129.5 0.600024L129.1 6.70002C129 8.30002 128.5 9.50002 127.7 10.2C126.9 10.9 125.7 11.2 124.2 11.1C122.7 11 121.5 10.5 120.8 9.70002C120.1 8.90002 119.8 7.70002 119.9 6.00002L120.3 -0.0999756L123.1 0.200024Z" fill="#EFEADF"/>
<path d="M151.3 15.8L148 15L146.5 10.4L145.4 14.3L142.8 13.6L145.5 3.40002L149.6 4.50002C150.2 4.70002 150.6 4.90002 151 5.10002C151.4 5.40002 151.7 5.70002 151.9 6.10002C152.1 6.50002 152.2 6.80002 152.3 7.30002C152.4 7.80002 152.3 8.10002 152.2 8.60002C152 9.40002 151.6 9.90002 151.1 10.3C150.6 10.7 150 10.9 149.2 10.8L151.3 15.8ZM147 8.70002L147.5 8.80002C148 8.90002 148.4 8.90002 148.8 8.80002C149.1 8.70002 149.4 8.40002 149.5 8.00002C149.6 7.60002 149.6 7.20002 149.3 7.00002C149.1 6.70002 148.7 6.50002 148.2 6.40002L147.7 6.30002L147 8.70002Z" fill="#EFEADF"/>
<path d="M170.3 21.8L166.8 20.1L165.4 21.5L162.8 20.2L171 12.5L173.7 13.8L172.6 25L170 23.7L170.3 21.8ZM170.5 19.6L171 15.9L168.3 18.5L170.5 19.6Z" fill="#EFEADF"/>
<path d="M183.9 32.0999L190.4 23.7999L192.6 25.4999V33.6999L196.6 28.5999L198.7 30.2999L192.2 38.5999L190.1 36.8999V28.6999L186.1 33.7999L183.9 32.0999Z" fill="#EFEADF"/>
<path d="M211.1 46.2L204.9 51.6L203.1 49.5L209.3 44.1L207.8 42.4L209.5 40.9L214.3 46.3L212.6 47.8L211.1 46.2Z" fill="#EFEADF"/>
<path d="M3.9 135.2C6.05391 135.2 7.8 133.454 7.8 131.3C7.8 129.146 6.05391 127.4 3.9 127.4C1.74609 127.4 0 129.146 0 131.3C0 133.454 1.74609 135.2 3.9 135.2Z" fill="#EFEADF"/>
<path d="M230.2 135.2C232.354 135.2 234.1 133.454 234.1 131.3C234.1 129.146 232.354 127.4 230.2 127.4C228.046 127.4 226.3 129.146 226.3 131.3C226.3 133.454 228.046 135.2 230.2 135.2Z" fill="#EFEADF"/>
</svg>
