<?xml version="1.0" encoding="utf-8"?>
<svg id="master-artboard" viewBox="0 0 800 160" version="1.1" xmlns="http://www.w3.org/2000/svg" x="0px" y="0px" style="enable-background:new 0 0 800 175;" width="800px" height="160px"><defs><clipPath id="clipPath80" clipPathUnits="userSpaceOnUse"><path id="path82" d="m 0,1080 1920,0 L 1920,0 0,0 0,1080 Z"/></clipPath></defs><g transform="matrix(0.5833333134651184, 0, 0, 0.5833333134651185, -350.46763192384617, -315.0454476617415)"><metadata id="metadata8"/><g transform="matrix(1.25,0,0,-1.25,0,1350)" id="g10"><g transform="translate(651.5361,548.1523)" id="g12"><path id="path14" style="fill:#003456;fill-opacity:1;fill-rule:nonzero;stroke:none" d="m 0,0 -4.109,12.149 -27.132,0 L -35.535,0 l -22.659,0 32.025,81.63 16.74,0 L 22.603,0 0,0 Z m -7.475,84.497 -1.954,0 -16.74,0 -1.954,0 -0.715,-1.819 -32.025,-81.631 -1.534,-3.914 15.676,-8.607 22.659,0 4.294,12.15 16.513,0 0.539,-1.594 0.659,-1.949 13.531,-8.607 22.602,0 -32.031,81.631 -9.52,14.34 z"/></g><g transform="translate(907.877,548.1523)" id="g16"><path id="path18" style="fill:#003456;fill-opacity:1;fill-rule:nonzero;stroke:none" d="m 0,0 -4.109,12.149 -27.138,0 L -35.535,0 l -22.664,0 32.03,81.63 16.741,0 L 22.597,0 0,0 Z m -7.475,84.497 -1.953,0 -16.741,0 -1.954,0 -0.714,-1.819 -32.03,-81.631 -1.537,-3.914 15.678,-8.607 22.664,0 4.289,12.15 16.518,0 0.54,-1.594 0.659,-1.949 13.53,-8.607 22.596,0 -32.025,81.631 -9.52,14.34 z"/></g><g transform="translate(1405.168,566.0127)" id="g20"><path id="path22" style="fill:#003456;fill-opacity:1;fill-rule:nonzero;stroke:none" d="m 0,0 0,-17.86 -59.891,0 0,81.63 59.891,0 0,-17.86 -38.257,0 0,-13.661 32.697,0 0,-17.86 -32.697,0 L -38.257,0 0,0 Z m -27.601,33.547 0,2.968 25.33,0 0,-2.078 13.745,0 0,17.859 -8.607,14.341 -2.867,0 -59.891,0 -2.866,0 0,-2.867 0,-81.63 0,-2.867 14.34,-8.607 59.891,0 0,17.86 -8.588,14.308 0,-1.167 -30.487,0 0,2.967 30.487,0 0,-1.719 3.028,0 0,17.86 -8.185,13.639 0,-0.867 -25.33,0 z"/></g><g transform="translate(506.2246,629.7827)" id="g24"><path id="path26" style="fill:#003456;fill-opacity:1;fill-rule:nonzero;stroke:none" d="m 0,0 21.634,0 0,-63.77 36.986,0 0,-17.86 L 0,-81.63 0,0 Z m 58.62,-60.904 -25.513,0 0,49.43 -8.606,14.341 -2.867,0 -21.634,0 -2.866,0 0,-2.867 0,-81.63 0,-2.867 14.34,-8.607 58.619,0 0,17.86 -8.607,14.34 -2.866,0 z"/></g><g transform="translate(634.3145,598.8213)" id="g28"><path id="path30" style="fill:#003456;fill-opacity:1;fill-rule:nonzero;stroke:none" d="m 0,0 -7.917,-21.779 15.347,0 L 0,0 Z"/></g><g transform="translate(814.4111,579.7295)" id="g32"><path id="path34" style="fill:#003456;fill-opacity:1;fill-rule:nonzero;stroke:none" d="m 0,0 -32.691,0 0,-31.577 -21.634,0 0,81.63 59.885,0 0,-17.86 -38.251,0 0,-14.333 L 0,17.86 0,0 Z m 5.56,52.92 -59.885,0 -2.867,0 0,-2.867 0,-81.63 0,-2.867 0.019,0 -0.022,-0.114 14.343,-8.493 21.634,0 0,31.577 32.692,0 0,17.861 -8.608,11.473 0,2.86 14.167,0 0,17.86 -8.607,14.34 -2.866,0 z"/></g><g transform="translate(890.6494,598.8213)" id="g36"><path id="path38" style="fill:#003456;fill-opacity:1;fill-rule:nonzero;stroke:none" d="m 0,0 -7.916,-21.779 15.352,0 L 0,0 Z"/></g><g transform="translate(1024.6621,587.2319)" id="g40"><path id="path42" style="fill:#003456;fill-opacity:1;fill-rule:nonzero;stroke:none" d="m 0,0 -12.508,-20.156 -13.84,0 L -38.855,0 l 0,-39.08 -21.634,0 0,81.631 21.27,0 19.764,-36 19.819,36 21.27,0 0,-81.631 L 0,-39.08 0,0 Z m 21.634,45.417 -21.27,0 -1.693,0 -0.817,-1.483 -16.352,-29.702 -9.248,16.845 -9.776,14.34 -1.697,0 -21.27,0 -2.866,0 0,-2.866 0,-81.631 0,-2.866 14.339,-8.607 21.634,0 0,27.162 12.508,-8.238 12.008,0 0,-7.451 0,-2.866 14.34,-8.607 21.633,0 0,81.63 -8.606,14.34 -2.867,0 z"/></g><path id="path44" style="fill:#003456;fill-opacity:1;fill-rule:nonzero;stroke:none" d="m 1088.937,629.783 21.634,0 0,-81.63 -21.634,0 0,81.63 z m 21.633,2.866 -21.633,0 -2.867,0 0,-2.866 0,-81.631 0,-2.866 14.34,-8.607 21.634,0 0,81.63 -8.606,14.34 -2.868,0 z"/><g transform="translate(1153.1553,629.7827)" id="g46"><path id="path48" style="fill:#003456;fill-opacity:1;fill-rule:nonzero;stroke:none" d="m 0,0 21.634,0 0,-63.77 36.985,0 0,-17.86 L 0,-81.63 0,0 Z m 58.619,-60.904 -25.512,0 0,49.43 -8.607,14.341 -2.866,0 -21.634,0 -2.867,0 0,-2.867 0,-81.63 0,-2.867 14.341,-8.607 58.619,0 0,17.86 -8.608,14.34 -2.866,0 z"/></g><g transform="translate(1249.2188,629.7827)" id="g50"><path id="path52" style="fill:#003456;fill-opacity:1;fill-rule:nonzero;stroke:none" d="m 0,0 21.634,0 0,-63.77 36.986,0 0,-17.86 L 0,-81.63 0,0 Z m 58.62,-60.904 -25.513,0 0,49.43 -8.606,14.341 -2.867,0 -21.634,0 -2.866,0 0,-2.867 0,-81.63 0,-2.867 14.34,-8.607 58.62,0 0,17.86 -8.608,14.34 -2.866,0 z"/></g><g transform="translate(1377.5674,570.647)" id="g54"><path id="path56" style="fill:#003456;fill-opacity:1;fill-rule:nonzero;stroke:none" d="m 0,0 0,-2.968 30.486,0 0,1.168 0,0.081 0,1.719 L 0,0 Z"/></g><g transform="translate(1402.8965,602.5278)" id="g58"><path id="path60" style="fill:#003456;fill-opacity:1;fill-rule:nonzero;stroke:none" d="m 0,0 -25.329,0 0,-2.968 25.329,0 0,0.866 0,0.023 L 0,0 Z"/></g><g transform="translate(688.4668,476.6787)" id="g62"><path id="path64" style="fill:#003456;fill-opacity:1;fill-rule:nonzero;stroke:none" d="m 0,0 0,-6.522 14.869,0 0,-8.142 -14.869,0 0,-14.351 -9.855,0 0,37.157 27.258,0 L 17.403,0 0,0 Z"/></g><path id="path66" style="fill:#003456;fill-opacity:1;fill-rule:nonzero;stroke:none" d="m 729.076,484.82 9.856,0 0,-37.156 -9.856,0 0,37.156 z"/><g transform="translate(786.6367,447.6641)" id="g68"><path id="path70" style="fill:#003456;fill-opacity:1;fill-rule:nonzero;stroke:none" d="m 0,0 -12.84,18.683 0,-18.683 -9.856,0 0,37.156 8.616,0 12.842,-18.682 0,18.682 9.855,0 L 8.617,0 0,0 Z"/></g><g transform="translate(820.2637,447.6641)" id="g72"><path id="path74" style="fill:#003456;fill-opacity:1;fill-rule:nonzero;stroke:none" d="m 0,0 0,37.156 27.259,0 0,-8.141 -17.404,0 0,-6.21 14.87,0 0,-8.141 -14.87,0 0,-6.523 17.404,0 L 27.259,0 0,0 Z"/></g><g id="g76"><g clip-path="url(#clipPath80)" id="g78"><g transform="translate(882.8379,447.3506)" id="g84"><path id="path86" style="fill:#003456;fill-opacity:1;fill-rule:nonzero;stroke:none" d="m 0,0 c -6.139,0 -11.152,1.044 -15.207,4.905 l 6.309,5.846 c 2.084,-1.932 5.744,-2.609 8.955,-2.609 3.885,0 5.744,1.2 5.744,3.339 0,0.887 -0.225,1.618 -0.789,2.192 -0.506,0.47 -1.352,0.835 -2.647,0.991 l -4.844,0.627 c -3.547,0.47 -6.251,1.565 -8.053,3.287 -1.859,1.775 -2.76,4.279 -2.76,7.463 0,6.784 5.52,11.741 14.644,11.741 5.744,0 10.081,-1.252 13.516,-4.435 L 8.673,27.606 c -2.534,2.348 -5.857,2.192 -7.603,2.192 -3.435,0 -4.843,-1.826 -4.843,-3.444 0,-0.47 0.169,-1.148 0.788,-1.722 0.506,-0.47 1.352,-0.94 2.759,-1.096 l 4.844,-0.627 c 3.605,-0.469 6.195,-1.513 7.885,-3.078 2.14,-1.932 2.985,-4.697 2.985,-8.142 C 15.488,4.123 8.447,0 0,0"/></g><g transform="translate(939.0469,476.6787)" id="g88"><path id="path90" style="fill:#003456;fill-opacity:1;fill-rule:nonzero;stroke:none" d="m 0,0 0,-29.015 -9.855,0 0,29.015 -9.857,0 0,8.142 29.568,0 L 9.856,0 0,0 Z"/></g><g transform="translate(1000.9473,447.6641)" id="g92"><path id="path94" style="fill:#003456;fill-opacity:1;fill-rule:nonzero;stroke:none" d="m 0,0 0,37.156 9.855,0 0,-29.015 16.84,0 L 26.695,0 0,0 Z"/></g><g transform="translate(1064.084,447.3506)" id="g96"><path id="path98" style="fill:#003456;fill-opacity:1;fill-rule:nonzero;stroke:none" d="m 0,0 c -8.336,0 -15.15,5.219 -15.15,13.359 l 0,24.111 9.856,0 0,-23.902 c 0,-3.444 2.027,-5.426 5.294,-5.426 3.267,0 5.406,1.982 5.406,5.426 l 0,23.902 9.857,0 0,-24.111 C 15.263,5.219 8.336,0 0,0"/></g><g transform="translate(1126.377,447.6641)" id="g100"><path id="path102" style="fill:#003456;fill-opacity:1;fill-rule:nonzero;stroke:none" d="m 0,0 -12.841,18.683 0,-18.683 -9.856,0 0,37.156 8.617,0 12.842,-18.682 0,18.682 9.855,0 L 8.617,0 0,0 Z"/></g><g transform="translate(1173.9141,447.3506)" id="g104"><path id="path106" style="fill:#003456;fill-opacity:1;fill-rule:nonzero;stroke:none" d="m 0,0 c -4.674,0 -8.223,1.462 -11.15,4.175 -4.225,3.914 -4.056,9.133 -4.056,14.717 0,5.584 -0.169,10.801 4.056,14.715 2.927,2.714 6.476,4.175 11.15,4.175 7.604,0 13.742,-3.914 15.207,-12.106 l -10.025,0 c -0.62,2.087 -1.859,3.966 -5.125,3.966 -1.803,0 -3.155,-0.679 -3.887,-1.566 -0.9,-1.096 -1.52,-2.4 -1.52,-9.184 0,-6.785 0.62,-8.089 1.52,-9.185 0.732,-0.888 2.084,-1.565 3.887,-1.565 3.266,0 4.505,1.878 5.125,3.965 l 10.025,0 C 13.742,3.914 7.604,0 0,0"/></g><g transform="translate(1231.5332,447.6641)" id="g108"><path id="path110" style="fill:#003456;fill-opacity:1;fill-rule:nonzero;stroke:none" d="m 0,0 0,14.716 -10.477,0 0,-14.716 -9.855,0 0,37.156 9.855,0 0,-14.299 10.477,0 0,14.299 9.855,0 L 9.855,0 0,0 Z"/></g></g></g></g></g></svg>